<svg width="24" height="24" viewBox="0 0 24 24" fill="none" xmlns="http://www.w3.org/2000/svg">
<path d="M19.4046 5.11639C18.0237 4.47028 16.5471 4.00071 15.0034 3.73334C14.8138 4.0761 14.5923 4.53713 14.4396 4.90387C12.7986 4.65709 11.1727 4.65709 9.56184 4.90387C9.40916 4.53713 9.18263 4.0761 8.99135 3.73334C7.44597 4.00071 5.9677 4.472 4.58676 5.11981C1.80138 9.32888 1.04631 13.4334 1.42384 17.4796C3.27125 18.8592 5.06162 19.6973 6.82176 20.2457C7.25635 19.6476 7.64395 19.0118 7.97785 18.3417C7.34192 18.1001 6.73283 17.8019 6.15732 17.4557C6.31 17.3426 6.45935 17.2243 6.60363 17.1026C10.1139 18.7444 13.9278 18.7444 17.3961 17.1026C17.5421 17.2243 17.6914 17.3426 17.8424 17.4557C17.2652 17.8035 16.6545 18.1017 16.0185 18.3434C16.3525 19.0118 16.7384 19.6493 17.1746 20.2474C18.9365 19.699 20.7285 18.861 22.5759 17.4796C23.0189 12.789 21.8192 8.72219 19.4046 5.11639ZM8.45608 14.9912C7.40234 14.9912 6.53819 14.0075 6.53819 12.8096C6.53819 11.6116 7.38389 10.6262 8.45608 10.6262C9.52829 10.6262 10.3924 11.6099 10.374 12.8096C10.3756 14.0075 9.52829 14.9912 8.45608 14.9912ZM15.5437 14.9912C14.49 14.9912 13.6258 14.0075 13.6258 12.8096C13.6258 11.6116 14.4715 10.6262 15.5437 10.6262C16.6159 10.6262 17.48 11.6099 17.4616 12.8096C17.4616 14.0075 16.6159 14.9912 15.5437 14.9912Z" fill="#0F1012"/>
</svg>
