<svg width="32" height="32" viewBox="0 0 32 32" fill="none" xmlns="http://www.w3.org/2000/svg">
<path fill-rule="evenodd" clip-rule="evenodd" d="M11.6783 1.33301L18.6667 1.33301C19.0203 1.33301 19.3594 1.47348 19.6095 1.72353L27.6095 9.72353C27.8595 9.97358 28 10.3127 28 10.6663V22.9881C28 24.0614 28 24.9472 27.9411 25.6688C27.8798 26.4182 27.7484 27.1072 27.4187 27.7543C26.9074 28.7578 26.0915 29.5737 25.088 30.085C24.4408 30.4148 23.7519 30.5462 23.0024 30.6074C22.2808 30.6664 21.395 30.6664 20.3218 30.6663H11.6782C10.605 30.6664 9.71915 30.6664 8.99757 30.6074C8.2481 30.5462 7.55917 30.4148 6.91205 30.085C5.90852 29.5737 5.09262 28.7578 4.5813 27.7543C4.25158 27.1072 4.12016 26.4182 4.05893 25.6688C3.99997 24.9472 3.99998 24.0614 4 22.9881V9.01128C3.99998 7.93798 3.99997 7.05217 4.05893 6.33057C4.12016 5.58111 4.25158 4.89217 4.5813 4.24506C5.09262 3.24153 5.90852 2.42563 6.91205 1.91431C7.55917 1.58459 8.2481 1.45317 8.99757 1.39193C9.71916 1.33298 10.605 1.33299 11.6783 1.33301ZM9.21472 4.04974C8.63016 4.0975 8.33123 4.18407 8.12269 4.29032C7.62093 4.54599 7.21298 4.95394 6.95732 5.4557C6.85106 5.66423 6.7645 5.96317 6.71674 6.54773C6.6677 7.14785 6.66667 7.92424 6.66667 9.06634V22.933C6.66667 24.0751 6.66771 24.8515 6.71674 25.4516C6.7645 26.0362 6.85106 26.3351 6.95732 26.5436C7.21298 27.0454 7.62093 27.4534 8.12269 27.709C8.33123 27.8153 8.63017 27.9018 9.21472 27.9496C9.81484 27.9986 10.5912 27.9997 11.7333 27.9997H20.2667C21.4088 27.9997 22.1852 27.9986 22.7853 27.9496C23.3698 27.9018 23.6688 27.8153 23.8773 27.709C24.3791 27.4534 24.787 27.0454 25.0427 26.5436C25.1489 26.3351 25.2355 26.0362 25.2833 25.4516C25.3323 24.8515 25.3333 24.0751 25.3333 22.933V11.9998L20.7575 11.9998C20.421 11.9998 20.0932 11.9999 19.8157 11.9772C19.5109 11.9523 19.1513 11.8935 18.7894 11.7091C18.2876 11.4535 17.8796 11.0455 17.624 10.5437C17.4396 10.1818 17.3808 9.8222 17.3559 9.51741C17.3333 9.23986 17.3333 8.91213 17.3333 8.57561L17.3333 3.99968H11.7333C10.5912 3.99968 9.81484 4.00071 9.21472 4.04974ZM20 5.88529L23.4478 9.3331H20.8C20.4046 9.3331 20.1883 9.33207 20.0328 9.31937C20.0267 9.31886 20.0208 9.31835 20.0153 9.31784C20.0148 9.3123 20.0142 9.30645 20.0137 9.30026C20.001 9.14481 20 8.92847 20 8.53311V5.88529ZM9.33333 11.9997C9.33333 11.2633 9.93029 10.6663 10.6667 10.6663H13.3333C14.0697 10.6663 14.6667 11.2633 14.6667 11.9997C14.6667 12.7361 14.0697 13.333 13.3333 13.333H10.6667C9.93029 13.333 9.33333 12.7361 9.33333 11.9997ZM9.33333 17.333C9.33333 16.5966 9.93029 15.9997 10.6667 15.9997H21.3333C22.0697 15.9997 22.6667 16.5966 22.6667 17.333C22.6667 18.0694 22.0697 18.6663 21.3333 18.6663H10.6667C9.93029 18.6663 9.33333 18.0694 9.33333 17.333ZM9.33333 22.6663C9.33333 21.93 9.93029 21.333 10.6667 21.333H21.3333C22.0697 21.333 22.6667 21.93 22.6667 22.6663C22.6667 23.4027 22.0697 23.9997 21.3333 23.9997H10.6667C9.93029 23.9997 9.33333 23.4027 9.33333 22.6663Z" fill="white"/>
</svg>
