<svg width="1440" height="1024" viewBox="0 0 1440 1024" fill="none" xmlns="http://www.w3.org/2000/svg">
<g clip-path="url(#clip0_22500_1118)">
<path d="M54.5599 1024C18.5468 1024 0.180066 893.403 0.180066 684.151V675.246H19.6272V698.991C19.6272 817.716 28.0902 877.078 54.5599 877.078C77.6083 877.078 85.7112 835.525 85.7112 742.029C85.7112 655.954 79.589 623.304 64.2834 599.559L34.7527 559.49C14.4052 529.809 0 452.638 0 289.391C0 145.438 14.4052 0 51.8589 0C87.1517 0 103.178 145.438 103.178 339.849V348.754H83.9106V329.461C83.9106 207.768 75.0874 146.922 50.0582 146.922C28.0902 146.922 19.4471 191.443 19.4471 280.487C19.4471 366.562 25.5693 394.759 39.7945 419.988L69.1452 461.542C93.274 497.159 105.158 587.687 105.158 733.125C105.158 884.499 90.2129 1024 54.5599 1024Z" fill="white"/>
<path d="M178.206 1024C140.392 1024 115.363 822.168 115.363 512C115.363 201.832 140.392 0 178.206 0C216.38 0 241.229 201.832 241.229 512C241.229 822.168 216.38 1024 178.206 1024ZM178.206 869.658C206.836 869.658 220.701 759.838 220.701 512C220.701 264.162 206.836 152.858 178.206 152.858C149.575 152.858 135.89 264.162 135.89 512C135.89 759.838 149.575 869.658 178.206 869.658Z" fill="white"/>
<path d="M275.043 1009.16H255.596V14.8408H282.066L316.818 590.655L327.802 796.939H329.243L339.867 590.655L374.259 14.8408H400.729V1009.16H381.282V399.212L382.002 255.258H380.562L373.179 399.212L339.867 949.797H316.458L283.146 399.212L275.763 255.258H274.323L275.043 399.212V1009.16Z" fill="white"/>
<path d="M515.296 1009.16H418.781V14.8408H515.296V158.794H438.228V437.797H512.595V580.267H438.228V865.206H515.296V1009.16Z" fill="white"/>
<path d="M616.675 1024C581.202 1024 557.614 822.168 557.614 512C557.614 201.832 583.003 0 621.537 0C655.75 0 679.518 142.47 679.518 372.499V384.371H658.09V372.499C658.09 230.029 646.026 152.858 620.997 152.858C592.006 152.858 578.141 264.162 578.141 512C578.141 759.838 591.826 869.658 620.097 869.658C648.907 869.658 660.251 804.359 660.251 636.661V623.304H615.595V501.612H679.518V1009.16H661.872V793.971H660.611C655.57 939.409 640.264 1024 616.675 1024Z" fill="white"/>
<path d="M755.154 1024C717.34 1024 692.311 822.168 692.311 512C692.311 201.832 717.34 0 755.154 0C793.328 0 818.177 201.832 818.177 512C818.177 822.168 793.328 1024 755.154 1024ZM755.154 869.658C783.785 869.658 797.65 759.838 797.65 512C797.65 264.162 783.785 152.858 755.154 152.858C726.524 152.858 712.839 264.162 712.839 512C712.839 759.838 726.524 869.658 755.154 869.658Z" fill="white"/>
<path d="M851.992 1009.16H832.544V14.8408H895.207C922.577 14.8408 939.503 121.693 939.503 307.2C939.503 471.93 926.359 572.846 903.67 583.235V593.623C913.034 614.4 917.355 658.922 921.677 721.252L941.844 1009.16H919.516L900.249 734.609C894.847 655.954 889.265 623.304 874.14 623.304H851.992V1009.16ZM851.992 158.794V500.128H895.027C911.233 500.128 919.336 454.122 919.336 329.461C919.336 207.768 911.233 158.794 895.027 158.794H851.992Z" fill="white"/>
<path d="M972.973 1009.16H953.526V14.8408H972.973V1009.16Z" fill="white"/>
<path d="M1084.8 1009.16H990.981V14.8408H1010.43V865.206H1084.8V1009.16Z" fill="white"/>
<path d="M1191.18 1009.16H1097.37V14.8408H1116.81V865.206H1191.18V1009.16Z" fill="white"/>
<path d="M1216.36 1009.16H1194.75L1248.59 14.8408H1275.96L1329.8 1009.16H1307.83L1293.97 750.933H1230.22L1216.36 1009.16ZM1254.35 304.232L1237.97 606.98H1286.22L1269.84 304.232L1262.82 163.246H1261.37L1254.35 304.232Z" fill="white"/>
<path d="M1389.4 1024C1353.39 1024 1335.02 893.403 1335.02 684.151V675.246H1354.47V698.991C1354.47 817.716 1362.93 877.078 1389.4 877.078C1412.45 877.078 1420.55 835.525 1420.55 742.029C1420.55 655.954 1414.43 623.304 1399.13 599.559L1369.59 559.49C1349.25 529.809 1334.84 452.638 1334.84 289.391C1334.84 145.438 1349.25 0 1386.7 0C1421.99 0 1438.02 145.438 1438.02 339.849V348.754H1418.75V329.461C1418.75 207.768 1409.93 146.922 1384.9 146.922C1362.93 146.922 1354.29 191.443 1354.29 280.487C1354.29 366.562 1360.41 394.759 1374.64 419.988L1403.99 461.542C1428.12 497.159 1440 587.687 1440 733.125C1440 884.499 1425.05 1024 1389.4 1024Z" fill="white"/>
</g>
<defs>
<clipPath id="clip0_22500_1118">
<rect width="1440" height="1024" fill="white"/>
</clipPath>
</defs>
</svg>
