<svg width="276" height="48" viewBox="0 0 276 48" fill="none" xmlns="http://www.w3.org/2000/svg">
<path fill-rule="evenodd" clip-rule="evenodd" d="M26.0203 0.0300541C26.7702 0.0932974 27.4357 0.23183 28.0892 0.454687C28.5048 0.596232 29.2336 0.945575 29.6191 1.18951C30.2937 1.61415 31.1882 2.38511 31.5375 2.84589C31.9441 3.37894 32.3717 4.40287 32.5735 5.33647L32.6578 5.72195H32.962C33.6787 5.72195 34.3503 6.02311 34.9707 6.6194C36.3169 7.91739 37.124 10.3959 37.4041 14.0942C37.4553 14.7447 37.5185 14.9163 37.8016 15.1392C38.0546 15.344 38.3798 15.4614 39.211 15.6511C40.5873 15.9643 40.9969 16.142 41.4848 16.6359C41.9456 17.0997 42.3702 17.8074 42.5961 18.4911C42.7978 19.0964 42.8731 19.6535 42.846 20.3432C42.8159 21.1172 42.6653 21.8098 42.2828 22.9181C42.1684 23.2584 42.072 23.5716 42.072 23.6168C42.072 23.674 42.1383 23.7915 42.2618 23.9661C43.4935 25.6707 44.4452 27.6162 44.9752 29.5135C45.8365 32.5973 45.7401 35.895 44.7042 38.75C43.873 41.0418 42.4244 42.6922 39.9338 44.1829C39.3255 44.5473 38.8316 44.8123 37.8859 45.2731C34.4136 46.9746 31.4532 47.7757 27.9116 47.9775C27.1828 48.0197 24.4633 47.9986 23.7315 47.9474C21.015 47.7546 17.2024 47.0469 14.1878 46.1796C12.5585 45.7098 11.5707 45.3243 10.4383 44.7159C8.97472 43.9269 7.8785 43.1198 6.86661 42.0838C5.5897 40.7768 4.71634 39.3102 4.18931 37.5845C3.79781 36.3136 3.68337 34.1302 3.9002 32.1185C4.10198 30.2694 4.60792 28.3901 5.37286 26.6434C5.46622 26.4296 5.54151 26.2519 5.54151 26.2429C5.54151 26.2369 5.45719 26.1887 5.35479 26.1375C4.84584 25.8785 4.36398 25.5322 3.90321 25.0864C3.09912 24.3064 2.64136 23.4813 2.48475 22.5115C2.4185 22.111 2.42753 21.4063 2.49981 20.9726C2.69557 19.8312 3.2768 18.5935 3.99356 17.8044C5.04159 16.645 6.66182 16.0186 8.60731 16.0155C8.92352 16.0155 9.18553 16.0095 9.18553 16.0035C9.18553 16.0005 9.23974 15.7957 9.30599 15.5487C9.57704 14.5369 9.8812 13.1425 10.1342 11.7722C10.3902 10.3809 10.5618 9.68218 10.878 8.76365C11.396 7.26689 12.0495 6.13152 12.8717 5.31538C13.7481 4.44203 14.778 4.03546 15.8984 4.11376C16.1062 4.12882 16.4344 4.14087 16.6241 4.14087C16.9404 4.14087 16.9855 4.13484 17.1451 4.05955C17.4192 3.93006 17.6692 3.66504 18.0697 3.07175C18.6359 2.23453 19.0063 1.82496 19.5604 1.43044C20.2561 0.933529 21.1807 0.584186 22.5268 0.30712C23.8128 0.0390888 25.0204 -0.0542702 26.0203 0.0300541ZM17.9221 16.6148C18.5817 16.1782 19.434 15.8981 20.2832 15.8409C20.4639 15.8288 20.6838 15.8258 20.7651 15.8288C21.3041 15.862 21.4457 15.88 21.7228 15.9342C22.1293 16.0155 22.6533 16.1872 23.3852 16.4793C24.1561 16.7895 24.5808 16.9341 25.0927 17.0606C26.6286 17.44 27.2821 17.3918 28.6253 16.8046C29.9655 16.2173 30.2666 16.1179 30.7485 16.0908C31.3056 16.0637 31.9802 16.2143 32.5313 16.4914C33.2812 16.8678 33.9618 17.5484 34.3052 18.2712C34.4708 18.6206 34.7358 19.4457 34.8503 19.9758C34.9406 20.3944 34.9466 21.2677 34.8653 21.6532C34.7328 22.2555 34.4015 23.0747 34.1214 23.4933C33.9377 23.7674 33.486 24.204 33.212 24.3757C32.2994 24.9419 31.0286 25.0955 29.333 24.8425C29.1102 24.8094 28.5892 24.716 28.1736 24.6347C27.258 24.457 26.978 24.4239 26.3455 24.4239C25.4752 24.4239 24.8337 24.5082 23.1141 24.8455C21.524 25.1587 21.3102 25.1858 20.494 25.1888C19.9369 25.1918 19.7411 25.1798 19.5002 25.1346C19.0665 25.0533 18.6329 24.9057 18.1329 24.6618C16.5489 23.8969 15.7207 22.8609 15.4647 21.325C15.293 20.298 15.7628 19.0151 16.7807 17.7291C17.1211 17.3015 17.615 16.8196 17.9221 16.6148Z" fill="white"/>
<path d="M70.3728 35C63.8537 35 60.1927 32.4493 60.1927 27.4754V27.2841H65.0098V27.858C65.0098 29.8348 66.0053 30.6319 70.3728 30.6319C74.2265 30.6319 75.1257 30.058 75.1257 28.6232C75.1257 27.3159 74.387 26.8377 72.1712 26.4551L66.1338 25.5942C62.2801 24.9884 60 23.0754 60 19.6C60 16.3797 62.6333 13 69.859 13C76.4744 13 79.5574 16.029 79.5574 20.5246V20.7159H74.7082V20.2696C74.7082 18.229 73.6484 17.3681 69.3773 17.3681C65.909 17.3681 64.8492 18.0377 64.8492 19.4087C64.8492 20.6522 65.5557 21.0985 67.3541 21.4174L73.3915 22.3739C78.2086 23.1391 79.9427 25.4667 79.9427 28.4C79.9427 31.8754 77.2131 35 70.3728 35Z" fill="white"/>
<path d="M90.4789 35C84.9874 35 81.2943 31.7478 81.2943 26.7101C81.2943 21.6087 84.9874 18.3884 90.4789 18.3884C95.9704 18.3884 99.6635 21.6087 99.6635 26.7101C99.6635 31.7478 95.9704 35 90.4789 35ZM90.4789 30.7594C93.7224 30.7594 94.8785 29.5159 94.8785 26.7101C94.8785 23.9043 93.7224 22.5971 90.4789 22.5971C87.2033 22.5971 86.0793 23.9043 86.0793 26.7101C86.0793 29.5159 87.2033 30.7594 90.4789 30.7594Z" fill="white"/>
<path d="M106.448 34.6812H101.631V18.7072H106.095V23.5536H106.351C106.737 20.8754 108.342 18.3884 112.389 18.3884C116.114 18.3884 118.009 20.6522 118.362 23.6174H118.651C119.036 20.9072 120.674 18.3884 124.817 18.3884C128.96 18.3884 130.983 21.0985 130.983 24.7333V34.6812H126.166V26.3275C126.166 23.6812 125.234 22.6928 122.473 22.6928C119.55 22.6928 118.715 23.8406 118.715 26.6145V34.6812H113.898V26.3275C113.898 23.6812 112.967 22.6928 110.205 22.6928C107.283 22.6928 106.448 23.8406 106.448 26.6145V34.6812Z" fill="white"/>
<path d="M141.973 35C136.61 35 132.949 32.3855 132.949 26.7101C132.949 21.6087 136.578 18.3884 141.877 18.3884C147.144 18.3884 150.644 21.1304 150.644 26.1362C150.644 26.7101 150.58 27.1246 150.516 27.6667H137.413C137.542 30.1217 138.698 31.1739 141.813 31.1739C144.671 31.1739 145.666 30.4406 145.666 29.0696V28.7507H150.483V29.1014C150.483 32.5768 147.079 35 141.973 35ZM141.781 22.1188C138.922 22.1188 137.702 23.0754 137.477 25.1478H146.02C145.891 23.0435 144.607 22.1188 141.781 22.1188Z" fill="white"/>
<path d="M167.79 35C161.207 35 157.16 30.6638 157.16 24C157.16 17.3362 161.72 13 169.107 13C175.85 13 180.122 16.1246 180.122 21.258V21.513H174.759V21.258C174.759 18.771 173.121 17.5913 168.978 17.5913C164.097 17.5913 162.266 19.2493 162.266 24C162.266 28.7507 164.033 30.4087 168.753 30.4087C173.699 30.4087 175.208 29.6435 175.337 26.9333H168.047V23.3942H180.154V34.6812H175.69V30.0899H175.433C174.694 32.8957 172.446 35 167.79 35Z" fill="white"/>
<path d="M191.086 35C185.594 35 181.901 31.7478 181.901 26.7101C181.901 21.6087 185.594 18.3884 191.086 18.3884C196.577 18.3884 200.27 21.6087 200.27 26.7101C200.27 31.7478 196.577 35 191.086 35ZM191.086 30.7594C194.329 30.7594 195.485 29.5159 195.485 26.7101C195.485 23.9043 194.329 22.5971 191.086 22.5971C187.81 22.5971 186.686 23.9043 186.686 26.7101C186.686 29.5159 187.81 30.7594 191.086 30.7594Z" fill="white"/>
<path d="M207.055 34.6812H202.238V18.7072H206.701V22.9478H206.99C207.44 20.3652 209.142 18.3884 212.386 18.3884C215.982 18.3884 217.46 20.8435 217.46 23.9681V26.6145H212.642V24.9565C212.642 23.2029 211.936 22.4377 209.977 22.4377C207.825 22.4377 207.055 23.4261 207.055 25.4348V34.6812Z" fill="white"/>
<path d="M224.021 17.0812H219.204V13.3188H224.021V17.0812ZM224.021 34.6812H219.204V18.7072H224.021V34.6812Z" fill="white"/>
<path d="M231.36 34.6812H226.543V13.3188H231.36V34.6812Z" fill="white"/>
<path d="M238.698 34.6812H233.881V13.3188H238.698V34.6812Z" fill="white"/>
<path d="M246.165 35C242.697 35 240.609 33.4058 240.609 30.7275C240.609 28.3681 242.376 26.9014 245.812 26.5507L252.716 25.8493V25.2435C252.716 23.171 251.785 22.5971 249.216 22.5971C246.775 22.5971 245.78 23.2348 245.78 25.0522V25.1797H240.931V25.0841C240.931 21.1304 244.27 18.3884 249.569 18.3884C254.932 18.3884 257.469 21.1304 257.469 25.3072V34.6812H252.973V31.0145H252.716C251.978 33.5014 249.73 35 246.165 35ZM245.459 30.4087C245.459 31.2696 246.133 31.6203 247.546 31.6203C250.822 31.6203 252.588 30.8551 252.716 28.5913L247.129 29.229C245.972 29.3246 245.459 29.6435 245.459 30.4087Z" fill="white"/>
<path d="M268.036 35C262.608 35 259.622 32.8957 259.622 29.1971V29.1014H264.439V29.3884C264.439 30.8232 265.338 31.2058 268.068 31.2058C270.637 31.2058 271.247 30.7913 271.247 29.8348C271.247 28.942 270.765 28.687 268.871 28.4319L264.343 27.8899C261.131 27.5391 259.333 26.1043 259.333 23.4261C259.333 20.6203 261.741 18.3884 267.265 18.3884C272.532 18.3884 275.518 20.3652 275.518 24.2551V24.3507H270.701V24.1594C270.701 22.8522 270.059 22.1826 267.104 22.1826C264.696 22.1826 264.086 22.5971 264.086 23.6174C264.086 24.4464 264.535 24.7971 266.655 25.0522L270.091 25.4667C274.394 25.9449 276 27.3797 276 30.0261C276 33.0232 273.013 35 268.036 35Z" fill="white"/>
</svg>
