<svg width="30" height="23" viewBox="0 0 30 23" fill="none" xmlns="http://www.w3.org/2000/svg">
<path d="M24.873 2.82161C23.0317 1.96013 21.063 1.33404 19.0047 0.977539C18.7519 1.43456 18.4566 2.04926 18.253 2.53825C16.0649 2.2092 13.8971 2.2092 11.7493 2.53825C11.5457 2.04926 11.2437 1.43456 10.9886 0.977539C8.92812 1.33404 6.9571 1.96243 5.11584 2.82617C1.402 8.43826 0.395241 13.911 0.898622 19.306C3.36183 21.1454 5.74898 22.2628 8.09585 22.994C8.6753 22.1966 9.19209 21.3488 9.6373 20.4553C8.78939 20.1332 7.97727 19.7356 7.20992 19.274C7.41349 19.1232 7.61262 18.9655 7.80501 18.8032C12.4853 20.9923 17.5706 20.9923 22.195 18.8032C22.3896 18.9655 22.5887 19.1232 22.7901 19.274C22.0205 19.7378 21.2061 20.1354 20.3582 20.4576C20.8034 21.3488 21.318 22.1989 21.8997 22.9963C24.2488 22.2651 26.6382 21.1477 29.1014 19.306C29.692 13.0518 28.0924 7.62934 24.873 2.82161ZM10.2749 15.9881C8.86995 15.9881 7.71775 14.6764 7.71775 13.0792C7.71775 11.4819 8.84534 10.168 10.2749 10.168C11.7046 10.168 12.8567 11.4796 12.8321 13.0792C12.8343 14.6764 11.7046 15.9881 10.2749 15.9881ZM19.7251 15.9881C18.3201 15.9881 17.1679 14.6764 17.1679 13.0792C17.1679 11.4819 18.2955 10.168 19.7251 10.168C21.1547 10.168 22.3069 11.4796 22.2823 13.0792C22.2823 14.6764 21.1547 15.9881 19.7251 15.9881Z" fill="white"/>
</svg>
